<svg width="127" height="195" viewBox="0 0 127 195" fill="none" xmlns="http://www.w3.org/2000/svg">
<g clip-path="url(#clip0)">
<path d="M111.324 24.3997C113.851 24.3997 115.899 22.3514 115.899 19.8247C115.899 17.298 113.851 15.2498 111.324 15.2498C108.797 15.2498 106.749 17.298 106.749 19.8247C106.749 22.3514 108.797 24.3997 111.324 24.3997Z" fill="white"/>
<path d="M126.574 9.14991C129.1 9.14991 131.149 7.10163 131.149 4.57495C131.149 2.04828 129.1 0 126.574 0C124.047 0 121.999 2.04828 121.999 4.57495C121.999 7.10163 124.047 9.14991 126.574 9.14991Z" fill="white"/>
<path d="M80.8242 54.8994C83.3509 54.8994 85.3992 52.8511 85.3992 50.3245C85.3992 47.7978 83.3509 45.7495 80.8242 45.7495C78.2975 45.7495 76.2493 47.7978 76.2493 50.3245C76.2493 52.8511 78.2975 54.8994 80.8242 54.8994Z" fill="white"/>
<path d="M96.074 39.6497C98.6007 39.6497 100.649 37.6014 100.649 35.0747C100.649 32.548 98.6007 30.4998 96.074 30.4998C93.5473 30.4998 91.499 32.548 91.499 35.0747C91.499 37.6014 93.5473 39.6497 96.074 39.6497Z" fill="white"/>
<path d="M111.324 54.8994C113.851 54.8994 115.899 52.8511 115.899 50.3245C115.899 47.7978 113.851 45.7495 111.324 45.7495C108.797 45.7495 106.749 47.7978 106.749 50.3245C106.749 52.8511 108.797 54.8994 111.324 54.8994Z" fill="white"/>
<path d="M126.574 39.6497C129.1 39.6497 131.149 37.6014 131.149 35.0747C131.149 32.548 129.1 30.4998 126.574 30.4998C124.047 30.4998 121.999 32.548 121.999 35.0747C121.999 37.6014 124.047 39.6497 126.574 39.6497Z" fill="white"/>
<path d="M50.3245 85.3992C52.8511 85.3992 54.8994 83.3509 54.8994 80.8242C54.8994 78.2975 52.8511 76.2493 50.3245 76.2493C47.7978 76.2493 45.7495 78.2975 45.7495 80.8242C45.7495 83.3509 47.7978 85.3992 50.3245 85.3992Z" fill="white"/>
<path d="M65.5743 70.1492C68.101 70.1492 70.1493 68.1009 70.1493 65.5742C70.1493 63.0475 68.101 60.9993 65.5743 60.9993C63.0477 60.9993 60.9994 63.0475 60.9994 65.5742C60.9994 68.1009 63.0477 70.1492 65.5743 70.1492Z" fill="white"/>
<path d="M80.8242 85.3992C83.3509 85.3992 85.3992 83.3509 85.3992 80.8242C85.3992 78.2975 83.3509 76.2493 80.8242 76.2493C78.2975 76.2493 76.2493 78.2975 76.2493 80.8242C76.2493 83.3509 78.2975 85.3992 80.8242 85.3992Z" fill="white"/>
<path d="M96.074 70.1492C98.6007 70.1492 100.649 68.1009 100.649 65.5742C100.649 63.0475 98.6007 60.9993 96.074 60.9993C93.5473 60.9993 91.499 63.0475 91.499 65.5742C91.499 68.1009 93.5473 70.1492 96.074 70.1492Z" fill="white"/>
<path d="M111.324 85.3992C113.851 85.3992 115.899 83.3509 115.899 80.8242C115.899 78.2975 113.851 76.2493 111.324 76.2493C108.797 76.2493 106.749 78.2975 106.749 80.8242C106.749 83.3509 108.797 85.3992 111.324 85.3992Z" fill="white"/>
<path d="M126.574 70.1492C129.1 70.1492 131.149 68.1009 131.149 65.5742C131.149 63.0475 129.1 60.9993 126.574 60.9993C124.047 60.9993 121.999 63.0475 121.999 65.5742C121.999 68.1009 124.047 70.1492 126.574 70.1492Z" fill="white"/>
<path d="M65.5743 100.649C68.101 100.649 70.1493 98.6007 70.1493 96.074C70.1493 93.5473 68.101 91.499 65.5743 91.499C63.0477 91.499 60.9994 93.5473 60.9994 96.074C60.9994 98.6007 63.0477 100.649 65.5743 100.649Z" fill="white"/>
<path d="M80.8242 115.899C83.3509 115.899 85.3992 113.851 85.3992 111.324C85.3992 108.797 83.3509 106.749 80.8242 106.749C78.2975 106.749 76.2493 108.797 76.2493 111.324C76.2493 113.851 78.2975 115.899 80.8242 115.899Z" fill="white"/>
<path d="M96.074 100.649C98.6007 100.649 100.649 98.6007 100.649 96.074C100.649 93.5473 98.6007 91.499 96.074 91.499C93.5473 91.499 91.499 93.5473 91.499 96.074C91.499 98.6007 93.5473 100.649 96.074 100.649Z" fill="white"/>
<path d="M111.324 115.899C113.851 115.899 115.899 113.851 115.899 111.324C115.899 108.797 113.851 106.749 111.324 106.749C108.797 106.749 106.749 108.797 106.749 111.324C106.749 113.851 108.797 115.899 111.324 115.899Z" fill="white"/>
<path d="M126.574 100.649C129.1 100.649 131.149 98.6007 131.149 96.074C131.149 93.5473 129.1 91.499 126.574 91.499C124.047 91.499 121.999 93.5473 121.999 96.074C121.999 98.6007 124.047 100.649 126.574 100.649Z" fill="white"/>
<path d="M96.074 131.149C98.6007 131.149 100.649 129.1 100.649 126.574C100.649 124.047 98.6007 121.999 96.074 121.999C93.5473 121.999 91.499 124.047 91.499 126.574C91.499 129.1 93.5473 131.149 96.074 131.149Z" fill="white"/>
<path d="M111.324 146.398C113.851 146.398 115.899 144.35 115.899 141.823C115.899 139.297 113.851 137.249 111.324 137.249C108.797 137.249 106.749 139.297 106.749 141.823C106.749 144.35 108.797 146.398 111.324 146.398Z" fill="white"/>
<path d="M126.574 131.149C129.1 131.149 131.149 129.1 131.149 126.574C131.149 124.047 129.1 121.999 126.574 121.999C124.047 121.999 121.999 124.047 121.999 126.574C121.999 129.1 124.047 131.149 126.574 131.149Z" fill="white"/>
<path d="M126.574 161.648C129.1 161.648 131.149 159.6 131.149 157.073C131.149 154.547 129.1 152.499 126.574 152.499C124.047 152.499 121.999 154.547 121.999 157.073C121.999 159.6 124.047 161.648 126.574 161.648Z" fill="white"/>
</g>
<defs>
<clipPath id="clip0">
<rect width="143" height="195" fill="white"/>
</clipPath>
</defs>
</svg>
